<svg width="8" height="10" viewBox="0 0 8 10" fill="none" xmlns="http://www.w3.org/2000/svg">
<path fill-rule="evenodd" clip-rule="evenodd" d="M0.302662 7.61247C0.466662 7.51684 0.677138 7.57226 0.772774 7.73626C1.15175 8.38615 1.73113 8.87761 2.44561 9.1965C2.61898 9.27388 2.69679 9.47714 2.61942 9.65051C2.54204 9.82387 2.33878 9.90168 2.16541 9.82431C1.33514 9.45374 0.638561 8.87088 0.178876 8.08258C0.0832409 7.91858 0.138662 7.70811 0.302662 7.61247Z" fill="#09090B"/>
<path fill-rule="evenodd" clip-rule="evenodd" d="M6.94482 1.22464C6.48012 0.750046 5.81738 0.574987 5.16859 0.759594C4.98599 0.811551 4.79585 0.705644 4.74389 0.523044C4.69193 0.340444 4.79784 0.150298 4.98044 0.0983413C5.86877 -0.154425 6.79298 0.0868974 7.43605 0.743646C7.56887 0.879294 7.56658 1.09693 7.43093 1.22975C7.29528 1.36258 7.07765 1.36029 6.94482 1.22464Z" fill="#09090B"/>
<path fill-rule="evenodd" clip-rule="evenodd" d="M3.40849 0.943428C3.31038 0.775185 3.02447 0.673152 2.73403 0.839139C2.44466 1.00452 2.39377 1.29604 2.49017 1.46135L3.64776 3.44645C3.7434 3.61045 3.68798 3.82092 3.52398 3.91656C3.35998 4.0122 3.1495 3.95677 3.05386 3.79277L1.51041 1.14598C1.4123 0.977736 1.12638 0.875704 0.83595 1.04169C0.546579 1.20707 0.495685 1.49859 0.592088 1.6639L2.32848 4.64155C2.42411 4.80555 2.36869 5.01602 2.20469 5.11166C2.04069 5.20729 1.83021 5.15187 1.73458 4.98787L0.96285 3.66448C0.864741 3.49623 0.578827 3.3942 0.288393 3.56019C-0.000977931 3.72557 -0.051872 4.01708 0.0445304 4.1824L1.78092 7.16004C2.51835 8.42462 4.3381 8.83501 5.8813 7.95305C7.42343 7.07171 7.97161 5.31102 7.23589 4.04937L6.0783 2.06427C5.98019 1.89603 5.69428 1.794 5.40384 1.95999C5.11447 2.12536 5.06358 2.41688 5.15998 2.5822L5.93171 3.90559C5.97789 3.9848 5.99053 4.07917 5.96679 4.16774C5.94306 4.2563 5.88493 4.33171 5.80532 4.37721C5.09837 4.78124 4.88171 5.56248 5.19122 6.09324C5.28685 6.25724 5.23143 6.46772 5.06743 6.56335C4.90343 6.65899 4.69296 6.60357 4.59732 6.43957C4.17899 5.72219 4.34802 4.8584 4.88834 4.24786C5.0394 4.07718 5.09113 3.8289 4.97631 3.632L3.40849 0.943428Z" fill="#71717A"/>
</svg>
