<svg width="21" height="17" viewBox="0 0 21 17" fill="none" xmlns="http://www.w3.org/2000/svg">
<path d="M10.5615 3.30397C11.5748 1.48617 12.0815 0.57727 12.839 0.57727C13.5965 0.57727 14.1031 1.48617 15.1165 3.30397L15.3786 3.77426C15.6666 4.29082 15.8105 4.5491 16.035 4.71952C16.2595 4.88993 16.5391 4.95319 17.0983 5.07971L17.6074 5.19489C19.5751 5.64011 20.559 5.86272 20.7931 6.61545C21.0271 7.36819 20.3564 8.15253 19.0149 9.72121L18.6679 10.127C18.2866 10.5728 18.096 10.7957 18.0103 11.0714C17.9246 11.3472 17.9534 11.6446 18.011 12.2393L18.0635 12.7808C18.2663 14.8737 18.3677 15.9202 17.7549 16.3854C17.142 16.8507 16.2208 16.4265 14.3785 15.5782L13.9018 15.3587C13.3782 15.1177 13.1165 14.9971 12.839 14.9971C12.5615 14.9971 12.2997 15.1177 11.7762 15.3587L11.2995 15.5782C9.45713 16.4265 8.53593 16.8507 7.92311 16.3854C7.31029 15.9202 7.41169 14.8737 7.61451 12.7808L7.66698 12.2393C7.72461 11.6446 7.75343 11.3472 7.66768 11.0714C7.58193 10.7957 7.39133 10.5728 7.01012 10.127L6.66307 9.72121C5.32159 8.15253 4.65085 7.36819 4.88492 6.61545C5.119 5.86272 6.10287 5.64011 8.07062 5.19489L8.5797 5.07971C9.13887 4.95319 9.41846 4.88993 9.64294 4.71952C9.86743 4.5491 10.0114 4.29082 10.2994 3.77426L10.5615 3.30397Z" fill="#0066FE"/>
<path fill-rule="evenodd" clip-rule="evenodd" d="M7.49549 1.77956C5.51387 1.20852 3.38821 1.51015 1.33729 2.71122L1.12913 2.83312C0.7717 3.04245 0.312256 2.92238 0.102934 2.56495C-0.106388 2.20752 0.0136786 1.74807 0.37111 1.53875L0.57927 1.41685C2.93969 0.0345173 5.48702 -0.360249 7.91083 0.338209L8.11871 0.398113C8.51673 0.512808 8.74641 0.928443 8.63171 1.32646C8.51702 1.72448 8.10139 1.95416 7.70337 1.83946L7.49549 1.77956ZM3.58628 6.51361C3.62144 6.92633 3.31537 7.2894 2.90265 7.32456C2.74949 7.33761 2.63206 7.34506 2.53365 7.35131C2.35627 7.36257 2.24069 7.3699 2.08902 7.39901C1.89253 7.43673 1.6374 7.51659 1.1744 7.74809C0.803914 7.93333 0.35341 7.78316 0.168168 7.41268C-0.0170743 7.0422 0.133094 6.59169 0.503578 6.40645C1.04057 6.13795 1.43032 5.99806 1.80627 5.9259C2.05317 5.87851 2.30804 5.86191 2.53724 5.84699C2.62053 5.84156 2.70043 5.83636 2.77533 5.82998C3.18804 5.79482 3.55112 6.10089 3.58628 6.51361ZM4.66788 12.4332C3.48392 12.1558 2.23653 12.4309 1.30316 13.1664C0.977808 13.4227 0.50624 13.3668 0.249884 13.0414C-0.00647156 12.7161 0.049462 12.2445 0.374815 11.9882C1.67261 10.9656 3.38911 10.5929 5.0101 10.9728C5.41339 11.0673 5.66371 11.4708 5.56921 11.8741C5.47471 12.2774 5.07117 12.5277 4.66788 12.4332Z" fill="#0066FE"/>
</svg>
