<svg width="20" height="20" viewBox="0 0 20 20" fill="none" xmlns="http://www.w3.org/2000/svg">
<path fill-rule="evenodd" clip-rule="evenodd" d="M0 10C0 9.11839 4.74975e-08 8.31922 0.00957918 7.59291C0.0659592 7.39805 0.133348 7.2273 0.213222 7.07054C0.620684 6.27085 1.27085 5.62068 2.07054 5.21322C2.48197 5.00359 2.9897 4.87996 3.77708 4.81563C3.92663 4.80341 4.08387 4.79347 4.25 4.78538V8.83099C4.25 9.29857 4.24999 9.6821 4.26739 9.98389C4.28454 10.2816 4.32145 10.5899 4.44371 10.8652C4.88513 11.859 5.97413 12.3949 7.03086 12.1383C7.32356 12.0673 7.59039 11.9084 7.83671 11.7404C8.08644 11.57 8.39031 11.336 8.76078 11.0508L8.77933 11.0365C9.24865 10.6751 9.38076 10.5804 9.50191 10.5277C9.81962 10.3897 10.1804 10.3897 10.4981 10.5277C10.6192 10.5804 10.7513 10.6751 11.2207 11.0365L11.2392 11.0507C11.6097 11.336 11.9135 11.57 12.1633 11.7404C12.4096 11.9084 12.6764 12.0673 12.9691 12.1383C14.0259 12.3949 15.1149 11.859 15.5563 10.8652C15.6786 10.5899 15.7155 10.2816 15.7326 9.98389C15.75 9.68209 15.75 9.29855 15.75 8.83095V4.78538C15.9161 4.79347 16.0734 4.80341 16.2229 4.81563C17.0103 4.87996 17.518 5.00359 17.9295 5.21322C18.7291 5.62068 19.3793 6.27085 19.7868 7.07054C19.8667 7.2273 19.934 7.39805 19.9904 7.59292C20 8.31923 20 9.11839 20 10C20 14.714 20 17.0711 18.5355 18.5355C17.0711 20 14.714 20 10 20C5.28595 20 2.92893 20 1.46447 18.5355C0 17.0711 0 14.714 0 10ZM19.8433 4.72315C19.6699 3.24918 19.3048 2.23369 18.5355 1.46447C17.0711 0 14.714 0 10 0C5.28595 0 2.92893 0 1.46447 1.46447C0.695239 2.23369 0.330057 3.24918 0.156691 4.72315C0.526847 4.39051 0.9408 4.10536 1.38955 3.87671C2.04768 3.54138 2.77479 3.39252 3.65494 3.32061C4.51928 3.24999 5.59472 3.25 6.96644 3.25H13.0336C14.4053 3.25 15.4807 3.24999 16.3451 3.32061C17.2252 3.39252 17.9523 3.54138 18.6104 3.87671C19.0592 4.10536 19.4732 4.39051 19.8433 4.72315Z" fill="#0066FE"/>
<path d="M5.75 8.8076V4.75233C6.12917 4.75006 6.54382 4.75 7 4.75H13C13.4562 4.75 13.8708 4.75006 14.25 4.75233V8.8076C14.25 9.30433 14.2497 9.64424 14.2351 9.89758C14.22 10.1601 14.1923 10.2408 14.1854 10.2563C14.0383 10.5876 13.6753 10.7662 13.323 10.6807C13.3066 10.6767 13.2257 10.6493 13.0085 10.5012C12.7989 10.3582 12.5294 10.151 12.1358 9.84799L12.0688 9.79636C11.6986 9.51095 11.4101 9.28851 11.0958 9.15196C10.3968 8.84828 9.60317 8.84828 8.90419 9.15196C8.58991 9.2885 8.30138 9.51095 7.9312 9.79636L7.86419 9.84799C7.47062 10.151 7.20112 10.3582 6.99148 10.5012C6.77428 10.6493 6.69342 10.6767 6.67695 10.6807C6.32471 10.7662 5.96171 10.5876 5.81457 10.2563C5.80769 10.2408 5.78003 10.1601 5.7649 9.89758C5.7503 9.64424 5.75 9.30433 5.75 8.8076Z" fill="#0066FE"/>
</svg>
