<?xml version="1.0" encoding="UTF-8"?>
<svg id="Layer_1" data-name="Layer 1" xmlns="http://www.w3.org/2000/svg" viewBox="0 0 2048 550">
  <defs>
    <style>
      .cls-1 {
        font-family: Arial-BoldMT, Arial;
        font-size: 56.66px;
        font-weight: 700;
        isolation: isolate;
      }

      .cls-1, .cls-2 {
        fill: #72767d;
      }
    </style>
  </defs>
  <path class="cls-2" d="M338.76,306.73c1.18-20.99,11.46-39.49,26.96-52.6,15.21-12.88,35.68-20.75,58.01-20.75s42.78,7.87,58,20.75c15.5,13.11,25.78,31.6,26.96,52.57,1.18,21.57-7.49,41.61-22.7,56.46-15.51,15.11-37.57,24.59-62.27,24.59s-46.8-9.48-62.3-24.59c-15.22-14.85-23.87-34.89-22.68-56.44h0Z"/>
  <path class="cls-2" d="M203.44,349.25c.14,8.21,2.76,24.18,6.69,36.64,8.26,26.39,22.27,50.8,41.76,72.31,20,22.11,44.64,39.87,73.09,52.48,29.91,13.24,62.31,19.99,95.97,19.94,33.6-.04,66.01-6.93,95.91-20.27,28.45-12.73,53.06-30.57,73.03-52.7,19.48-21.6,33.47-46.06,41.75-72.44,4.16-13.33,6.79-26.86,7.85-40.44,1.03-13.38.6-26.77-1.3-40.16-3.71-26.09-12.73-50.56-26.63-72.88-12.71-20.5-29.1-38.45-48.58-53.56l.04-.03L366.43,27.18c-.18-.13-.32-.28-.51-.4-12.9-9.9-34.59-9.87-48.78.06-14.34,10.04-15.99,26.63-3.22,37.1l-.06.06,82,66.68-249.94.27h-.33c-20.66.02-40.52,13.58-44.45,30.7-4.04,17.45,9.99,31.93,31.47,32l-.03.08,126.68-.24L33.21,367c-.29.21-.6.43-.87.64-21.32,16.33-28.22,43.48-14.79,60.67,13.63,17.47,42.62,17.51,64.16.1l123.38-100.97s-1.8,13.63-1.65,21.81h0ZM520.47,394.9c-25.42,25.9-61.01,40.58-99.52,40.66-38.56.07-74.15-14.49-99.58-40.34-12.42-12.6-21.55-27.1-27.18-42.54-5.52-15.17-7.66-31.28-6.24-47.53,1.34-15.89,6.07-31.04,13.62-44.75,7.42-13.48,17.63-25.65,30.24-35.96,24.71-20.14,56.17-31.04,89.07-31.08,32.94-.04,64.37,10.76,89.11,30.83,12.59,10.26,22.79,22.39,30.21,35.84,7.58,13.7,12.28,28.8,13.68,44.72,1.4,16.23-.74,32.31-6.26,47.5-5.64,15.49-14.73,29.98-27.15,42.64h0Z"/>
  <path class="cls-2" d="M1685.75,306.4c1.9-21.18,18.27-34.61,43.28-34.61s41.41,13.43,43.3,34.61h-86.59ZM1769.77,358.7c-6.41,15.7-21.5,24.99-42.01,24.99-25.68,0-42.96-16.03-43.66-41.35h147.61v-7.45c0-63.43-37.23-99.07-103.95-99.07s-103.96,35.98-103.96,92.4,39.79,92.69,103.96,92.69c38.51,0,68.37-13.2,86.78-36.4l-44.77-25.81h0Z"/>
  <path class="cls-2" d="M1030.8,306.51c1.95-21.18,18.33-34.61,43.36-34.61s41.36,13.43,43.28,34.61h-86.64ZM1114.87,358.81c-6.42,15.74-21.5,25.03-42.05,25.03-25.63,0-42.96-16.07-43.64-41.41h147.58v-7.4c0-63.46-37.22-99.12-103.94-99.12s-103.92,35.99-103.92,92.41,39.76,92.69,103.92,92.69c38.5,0,68.38-13.15,86.82-36.39l-44.77-25.82h0Z"/>
  <rect class="cls-2" x="902.47" y="197.5" width="53.23" height="217.76"/>
  <path class="cls-2" d="M1189.98,255.34h53.53v12.97c18.95-20.23,41.71-30.45,67.37-30.45,29.56,0,51.94,10.22,63.5,27.63,9.65,14.38,10.28,31.73,10.28,54.53v95.23h-53.61v-83.68c0-34.72-6.98-50.75-37.47-50.75s-50.08,18.35-50.08,49.15v85.28h-53.53v-159.91h0Z"/>
  <path class="cls-2" d="M1557.09,330.93c0,29.81-19.92,49.35-50.73,49.35s-50.75-18.88-50.75-49.01,19.65-49.44,50.75-49.44,50.73,19.2,50.73,49.1ZM1557.09,262.59c-13.53-14.51-33.11-22.47-60.33-22.47-58.72,0-98.82,36.21-98.82,90.48s39.82,90.43,97.85,90.43c26.61,0,46.15-6.73,61.3-21.81v16.03h53.56v-231.57l-53.56,13.81v65.11Z"/>
  <path class="cls-2" d="M780.8,281.87c31.13,0,50.7,18.87,50.7,49.44s-19.88,49.01-50.7,49.01-50.69-19.55-50.69-49.35,19.89-49.1,50.69-49.1ZM730.12,197.51l-53.58-13.81v231.57h53.58v-16.03c15.08,15.09,34.65,21.81,61.28,21.81,58.07,0,97.83-37.22,97.83-90.43s-40.11-90.48-98.8-90.48c-27.27,0-46.85,7.96-60.31,22.47v-65.11h0Z"/>
  <path class="cls-2" d="M1844.94,415.3v-159.91h53.56v9.88c16.04-19.32,33.01-28.93,52.32-28.93,3.83,0,8.65.62,15.05,1.25v45.59c-5.16-.68-10.91-.68-17.02-.68-31.14,0-50.35,20.54-50.35,55.46v77.33h-53.56Z"/>
  <text class="cls-1" transform="translate(1990.86 244.9)"><tspan x="0" y="0">®</tspan></text>
</svg>