<svg width="1587" height="971" viewBox="0 0 1587 971" fill="none" xmlns="http://www.w3.org/2000/svg">
  <g clip-path="url(#a)" stroke="#e0e0e0" stroke-miterlimit="10">
    <path d="M1302.81 172.039H250.881v628.134H1302.81z"/>
    <path d="m365.162 912.253 96.033-111.969V172.829L370.868 59.117"/>
    <path d="m447.939 60.04 83.208 112.793v627.456l-83.208 111.968m83.207-853.14 70.292 112.914v628.134L538.11 912.253m90.428-853.136 42.98 112.914v628.134l-38.732 112.088m89.492 0 19.073-112.088V172.031L722.278 59.117m89.565 853.136V172.031l-1.458-112.914m88.859 853.136-17.88-112.088V172.031l13.091-112.914m100.988 853.136-44.907-112.088V172.031l44.907-112.914m86.107 853.136-60.37-112.088V172.031l60.37-112.914m88.68 0-78.4 113.831v627.217l70.23 112.088"/>
    <path d="m1240.11 912.253-77.64-112.088V172.031l90.65-112.914"/>
    <path d="m100.583 809.547 150.197-77.07h1047.25l186.45 85.997.46.211M100.583 709.743l150.197-47.118h1047.25l186.45 58.897.46.147M100.583 620.358l150.197-27.944h1047.25l186.45 28.861.46.074M100.583 525.728l150.197-3.064h1234.16M100.583 450.718l150.197 1.642h1047.25l186.45-4.101.46-.009M100.583 376.523l150.197 5.624h1047.25l186.45-4.908.46-.009M100.583 286.237l150.197 26.265h1047.25l186.45-32.833.46-.083m-1384.357-74.49 150.197 36.87h1047.25l186.45-46.09.46-.11M251.037 171.911 128.014 59.117m123.023 741.219L125.748 912.259"/>
    <path fill="#e0e0e0" d="M1586.77 43.609V926.56c0 23.953-18.85 43.384-42.11 43.384H953.224c-9.294-5.046-9.294-22.862 0-26.302h584.736c10.71 0 19.38-8.945 19.38-19.963V47.159c0-11.027-8.68-19.962-19.38-19.962H953.224c-9.294-3.34-11.615-22.706 0-26.963h591.436c23.26 0 42.11 19.412 42.11 43.375Z"/>
    <path d="M1492.91 41.727H89.859c-12.825 0-23.22 8.678-23.22 19.384v851.026c0 10.706 10.395 19.384 23.22 19.384H1492.91c12.84 0 23.22-8.678 23.22-19.384V61.111c0-10.706-10.38-19.384-23.22-19.384Zm-8.27 840.952c0 16.33-13.18 29.577-29.44 29.577H130.17c-16.248 0-29.431-13.247-29.431-29.577V88.697c0-16.33 13.183-29.577 29.431-29.577H1455.2c16.26 0 29.44 13.248 29.44 29.577z"/>
    <path d="M1484.48 88.694v793.982c0 16.329-13.17 29.577-29.43 29.577H130.024c-16.247 0-29.43-13.248-29.43-29.577V88.694c0-16.33 13.183-29.577 29.43-29.577H1455.06c16.26 0 29.43 13.247 29.43 29.577z"/>
    <path fill="#e0e0e0" d="M.23 44.039V926.99c0 23.953 18.852 43.384 42.108 43.384h591.438c9.294-5.046 9.294-22.862 0-26.302H49.036c-10.707 0-19.376-8.945-19.376-19.963V47.589c0-11.027 8.678-19.963 19.375-19.963h584.741c9.294-3.339 11.615-22.705 0-26.962H42.338C19.082.664.23 20.076.23 44.04Z"/>
    <path d="m295.293 912.51 96.024-112.088V172.297l-93.602-113.18"/>
    <path d="m217.305 59.367 103.95 112.914v628.134l-109.308 111.84M1339.27 59.117l-107.15 112.914V800.22l107.15 112.033m-36.46-740.222 152.24-112.914m-152.24 741.055 152.24 112.088"/>
  </g>
  <defs>
    <clipPath id="a">
      <path fill="#fff" d="M0 0h1587v970.599H0z"/>
    </clipPath>
  </defs>
</svg>
