<?xml version="1.0" encoding="UTF-8"?>
<svg id="Layer_1" data-name="Layer 1" xmlns="http://www.w3.org/2000/svg" viewBox="0 0 247 55.8">
  <defs>
    <style>
      .cls-1 {
        fill: #72767d;
      }
    </style>
  </defs>
  <g>
    <path class="cls-1" d="M70.2,45.3V8.1h22.7v7.2h-14.1v10h14.1v7.1h-14.1v12.9s-8.6,0-8.6,0Z"/>
    <path class="cls-1" d="M98.6,45.3v-25.6h8.1v5.3c.4-1.8,1.3-3.3,2.6-4.3,1.3-1,2.8-1.5,4.4-1.5.8,0,1.6.1,2.1.2v7.6c-1-.1-1.8-.2-2.4-.2-4.5,0-6.7,2.9-6.7,8.5v9.9h-8.1v.1Z"/>
    <path class="cls-1" d="M129.8,45.9c-3.7,0-6.7-1.3-8.8-3.8-2.2-2.5-3.2-5.8-3.2-9.7s1.1-7.1,3.3-9.7c2.2-2.5,5.2-3.8,8.8-3.8,1.8,0,3.4.4,4.8,1.2,1.4.8,2.5,1.8,3.2,3.2v-3.7h8.1v25.6h-8.1v-3.6c-.7,1.3-1.8,2.3-3.3,3.1-1.4.9-3,1.2-4.8,1.2ZM132.1,39.2c1.9,0,3.5-.6,4.5-1.9s1.6-2.9,1.6-4.8-.5-3.5-1.6-4.8-2.6-1.9-4.5-1.9c-1.8,0-3.3.6-4.4,1.9-1.1,1.2-1.7,2.9-1.7,4.8,0,2,.6,3.6,1.7,4.9,1.1,1.2,2.6,1.8,4.4,1.8Z"/>
    <path class="cls-1" d="M152.7,45.3v-25.6h8.1v3.7c.6-1.3,1.5-2.4,2.8-3.2,1.3-.8,2.8-1.2,4.5-1.2,4,0,6.7,1.6,8,4.7.7-1.4,1.8-2.6,3.2-3.4,1.5-.9,3.1-1.3,4.9-1.3,6.1,0,9.1,3.5,9.1,10.4v15.9h-8.2v-14.4c0-3.4-1.3-5-3.8-5-2.9,0-4.3,2.1-4.3,6.3v13.2h-8v-14.6c0-3.3-1.3-5-3.8-5-1.4,0-2.5.5-3.2,1.4s-1.1,2.6-1.1,4.9v13.2h-8.2Z"/>
    <path class="cls-1" d="M225.1,31.1c0,1.1-.1,2.2-.2,3.6h-18.9c.1,1.7.6,3,1.7,3.9,1.1.9,2.5,1.4,4.3,1.4,2.5,0,4.1-.8,4.8-2.4h8c-.4,2.5-1.8,4.6-4.1,6.1-2.4,1.6-5.2,2.4-8.6,2.4-4.4,0-7.8-1.2-10.3-3.6-2.5-2.4-3.8-5.7-3.8-10s1.3-7.5,3.8-9.9,5.9-3.6,10-3.6,7.2,1.1,9.7,3.4c2.3,2.2,3.6,5.1,3.6,8.7ZM205.9,29.6h11.1c0-1.7-.5-3-1.4-3.9s-2.2-1.4-4-1.4c-1.7,0-3.1.5-4.1,1.5-1,1-1.5,2.3-1.6,3.8Z"/>
    <path class="cls-1" d="M229.7,45.3v-25.6h8.1v5.3c.4-1.8,1.3-3.3,2.6-4.3s2.8-1.5,4.4-1.5c.8,0,1.6.1,2.1.2v7.6c-1-.1-1.8-.2-2.4-.2-4.5,0-6.7,2.9-6.7,8.5v9.9h-8.1v.1Z"/>
  </g>
  <path class="cls-1" d="M37.2,0v18.6h-18.6L0,0h37.2ZM0,18.6h18.6l18.6,18.6h-18.6v18.6L0,37.2v-18.6Z"/>
</svg>