<?xml version="1.0" encoding="UTF-8"?>
<svg id="Layer_1" data-name="Layer 1" xmlns="http://www.w3.org/2000/svg" viewBox="0 0 244.44 38.16">
  <path d="M38.81,38.16l-1.51-8.14c-.1.29-.44.84-1.04,1.66-.6.82-1.27,1.68-2.02,2.59-.74.91-1.48,1.75-2.2,2.52-.72.77-1.25,1.22-1.58,1.37H0c.05-.24.08-.41.11-.5.02-.1.04-.1.04,0v-.22L26.06,4.32c.14-.29.43-.67.86-1.15.43-.48.9-.95,1.4-1.4.5-.46,1.01-.86,1.51-1.22.5-.36.92-.54,1.26-.54h12.1c.48,0,.92.26,1.33.79.41.53.76,1.18,1.04,1.94.29.77.54,1.57.76,2.41.22.84.4,1.55.54,2.12l4.75,30.89h-12.82ZM22.68,28.51h14.62l-2.52-16.92-12.1,16.2v.72Z"/>
  <path d="M68.04,9.72h-13.61v-.07c.05-.19.4-.72,1.04-1.58.65-.86,1.42-1.82,2.3-2.88.89-1.06,1.8-2.08,2.74-3.06.94-.98,1.74-1.69,2.41-2.12h36.07c-.34.67-.9,1.55-1.69,2.63-.79,1.08-1.63,2.15-2.52,3.2-.89,1.06-1.75,1.97-2.59,2.74-.84.77-1.45,1.15-1.84,1.15h-8.5l-10.37,28.44h-13.82l10.37-28.44Z"/>
  <path d="M102.67,0h13.82l-8.14,22.32,7.34-7.56h10.94l5.4-14.76h13.68l-13.9,38.16h-13.68l4.97-13.68h-15.55l-4.97,13.68h-13.82L102.67,0Z"/>
  <path d="M174.1,38.16l-1.51-8.14c-.1.29-.44.84-1.04,1.66-.6.82-1.27,1.68-2.02,2.59-.75.91-1.48,1.75-2.2,2.52-.72.77-1.25,1.22-1.58,1.37h-30.46c.05-.24.08-.41.11-.5.02-.1.04-.1.04,0v-.22l25.92-33.12c.14-.29.43-.67.86-1.15.43-.48.9-.95,1.4-1.4.5-.46,1.01-.86,1.51-1.22.5-.36.92-.54,1.26-.54h12.1c.48,0,.92.26,1.33.79.41.53.76,1.18,1.04,1.94.29.77.54,1.57.76,2.41.22.84.4,1.55.54,2.12l4.75,30.89h-12.82ZM157.97,28.51h14.62l-2.52-16.92-12.1,16.2v.72Z"/>
  <path d="M190.22,38.16L204.12,0h32.26c1.73,0,3.12.36,4.18,1.08,1.06.72,1.87,1.63,2.45,2.74.58,1.1.96,2.3,1.15,3.6.19,1.3.29,2.5.29,3.6,0,2.45-.6,4.5-1.8,6.16-1.2,1.66-2.71,2.99-4.54,4s-3.84,1.74-6.05,2.2c-2.21.46-4.32.71-6.34.76l14.11,14.04h-15.41l-14.83-13.68-.79.58-4.75,13.1h-13.82ZM214.34,9.79l-4.1,10.73,7.05-5.9h11.52s.15-.11.32-.32c.17-.22.36-.46.58-.72.22-.26.41-.53.58-.79.17-.26.28-.47.32-.61l.07-.43c0-.43-.08-.86-.25-1.3-.17-.43-.61-.65-1.33-.65h-14.76Z"/>
</svg>