<?xml version="1.0" encoding="UTF-8"?>
<svg id="Layer_1" data-name="Layer 1" xmlns="http://www.w3.org/2000/svg" viewBox="0 0 394 80">
  <defs>
    <style>
      .cls-1 {
        fill-rule: evenodd;
      }

      .cls-1, .cls-2 {
        fill: #72767d;
      }
    </style>
  </defs>
  <path class="cls-2" d="M268.39,14.13h44.79v8.27h-17.77v43.5h-8.89V22.4h-18.14v-8.27Z"/>
  <path class="cls-2" d="M194.72,14.13v8.27h-35.91v13.3h28.87v8.27h-28.87v13.66h35.91v8.27h-44.79V22.4h0v-8.27h44.79Z"/>
  <path class="cls-2" d="M217.08,14.15h-11.63l41.65,51.76h11.66l-20.83-25.86,20.79-25.86-11.63.02-14.99,18.61-15.03-18.67Z"/>
  <path class="cls-2" d="M229.02,51.13l-5.82-7.24-17.77,22.07h11.66l11.93-14.83Z"/>
  <path class="cls-1" d="M150.24,65.89L108.54,14.11h-11.11v51.76h8.88V25.17l32.76,40.72h11.16Z"/>
  <path class="cls-2" d="M315.18,65.58c-.65,0-1.2-.23-1.67-.68-.46-.45-.69-1-.69-1.64,0-.63.22-1.17.69-1.62s1.02-.68,1.67-.68,1.17.23,1.64.68c.47.45.7.99.71,1.62,0,.43-.11.82-.33,1.17-.22.36-.51.63-.86.84-.35.21-.73.31-1.16.31Z"/>
  <path class="cls-2" d="M330.34,43.77h3.94v15.17c0,1.39-.31,2.59-.9,3.59-.6,1-1.42,1.77-2.48,2.31-1.05.53-2.29.81-3.69.81-1.28,0-2.43-.23-3.46-.68-1.02-.45-1.84-1.13-2.43-2.02-.6-.89-.9-2-.9-3.33h3.94c0,.58.14,1.09.39,1.51s.6.74,1.05.97c.45.23.97.34,1.55.34.63,0,1.17-.13,1.61-.4.44-.26.78-.65,1.01-1.17.23-.52.35-1.16.36-1.92v-15.17Z"/>
  <path class="cls-2" d="M350.48,49.7c-.1-.92-.52-1.64-1.25-2.15-.74-.52-1.7-.77-2.87-.77-.82,0-1.53.12-2.12.37-.59.25-1.05.58-1.36,1-.31.42-.47.9-.48,1.44,0,.45.11.84.32,1.17.21.33.49.61.86.84.36.23.76.42,1.2.58.45.15.89.28,1.34.39l2.05.5c.83.19,1.63.44,2.39.77.76.32,1.46.73,2.06,1.22.61.49,1.09,1.09,1.45,1.78.36.69.54,1.51.54,2.44,0,1.26-.33,2.37-.98,3.33-.66.96-1.6,1.7-2.84,2.24-1.23.53-2.73.81-4.48.81s-3.18-.26-4.42-.78c-1.25-.52-2.23-1.28-2.93-2.27-.7-1-1.08-2.21-1.14-3.64h3.9c.05.75.3,1.37.7,1.87.42.5.96.87,1.62,1.12.67.24,1.41.37,2.24.37s1.62-.13,2.28-.39c.65-.26,1.16-.61,1.53-1.07.37-.46.56-1,.57-1.61,0-.56-.17-1.03-.5-1.4-.33-.37-.79-.68-1.37-.93-.59-.25-1.28-.47-2.06-.67l-2.49-.63c-1.8-.46-3.23-1.15-4.27-2.08-1.05-.93-1.57-2.17-1.57-3.71,0-1.27.35-2.38,1.05-3.34.7-.96,1.66-1.7,2.87-2.22,1.22-.53,2.59-.79,4.12-.79s2.91.26,4.09.79c1.17.53,2.1,1.26,2.76,2.2.67.94,1.02,2.01,1.04,3.23h-3.82Z"/>
  <path class="cls-2" d="M39.94.06C17.88.06,0,17.94,0,40s17.88,39.94,39.94,39.94c7.9,0,15.25-2.3,21.45-6.26L29.08,34.41v21.84h-6.77V23.75h6.77s0,0,0,0l21.17,25.74v-26.54h5.62v33.37l10.91,13.26c8.05-7.31,13.1-17.85,13.1-29.58C79.88,17.94,62,.06,39.94.06Z"/>
</svg>