<?xml version="1.0" encoding="UTF-8"?>
<svg id="Layer_1" data-name="Layer 1" xmlns="http://www.w3.org/2000/svg" viewBox="0 0 665.4 82">
  <defs>
    <style>
      .cls-1 {
        fill: #72767d;
        fill-rule: evenodd;
      }
    </style>
  </defs>
  <path class="cls-1" d="M68.7,0c-18.3,0-29.7,9.1-34.3,27.3,6.9-9.1,14.9-12.5,24.1-10.3,5.2,1.3,9,5.1,13.1,9.2,6.7,6.9,14.5,14.8,31.5,14.8,18.3,0,29.8-9.1,34.4-27.3-6.9,9.1-14.9,12.5-24,10.2-5.2-1.3-9-5.1-13.1-9.2C93.6,7.9,85.8,0,68.7,0h0ZM34.4,41c-18.4,0-29.8,9.1-34.4,27.3,6.9-9.1,14.9-12.5,24.1-10.3,5.2,1.3,9,5.1,13.1,9.2,6.7,6.9,14.5,14.8,31.5,14.8,18.3,0,29.8-9.1,34.4-27.3-6.9,9.1-14.9,12.5-24.1,10.2-5.2-1.3-9-5.1-13.1-9.2-6.7-6.8-14.5-14.7-31.5-14.7h0Z"/>
  <path class="cls-1" d="M206.2,34.5h-12v23.1c0,6.2,4.1,6.1,12,5.7v9.3c-16.1,1.9-22.5-2.5-22.5-15v-23.1h-8.9v-10h8.9v-12.9l10.5-3.1v16h12v10ZM252,24.6h10.4v48.1h-10.4v-6.9c-3.7,5.1-9.4,8.2-16.9,8.2-13.2,0-24.1-11.1-24.1-25.3s10.9-25.3,24.1-25.3c7.5,0,13.3,3.1,16.9,8.1,0,0,0-6.9,0-6.9ZM236.7,64c8.7,0,15.3-6.5,15.3-15.4s-6.6-15.4-15.3-15.4-15.3,6.5-15.3,15.4,6.6,15.4,15.3,15.4h0ZM279.8,17.3c-3.7,0-6.7-3.1-6.7-6.6,0-3.7,3-6.6,6.7-6.6s6.7,3,6.7,6.6-3,6.6-6.7,6.6h0ZM274.6,72.6V24.6h10.4v48.1h-10.4v-.1ZM297.1,72.6V2.4h10.4v70.2h-10.4ZM375.4,24.6h11l-15.2,48.1h-10.2l-10.1-32.4-10.2,32.4h-10.3l-15.2-48.1h11l9.4,33.2,10.2-33.2h10l10.1,33.2,9.5-33.2h0ZM399.4,17.3c-3.7,0-6.7-3.1-6.7-6.6,0-3.7,3-6.6,6.7-6.6s6.7,3,6.7,6.6-3,6.6-6.7,6.6h0ZM394.2,72.6V24.6h10.4v48.1h-10.4v-.1ZM442.2,23.3c10.8,0,18.6,7.3,18.6,19.8v29.5h-10.4v-28.4c0-7.3-4.2-11.2-10.8-11.2s-12.3,4-12.3,13.9v25.8h-10.5V24.6h10.5v6.1c3-5,8.3-7.4,14.9-7.4h0ZM510.3,5.3h10.5v67.3h-10.5v-6.9c-3.7,5.1-9.4,8.2-16.9,8.2-13.1,0-24.1-11.1-24.1-25.3s10.9-25.3,24.1-25.3c7.5,0,13.3,3.1,16.9,8.1V5.3ZM495,64c8.7,0,15.3-6.5,15.3-15.4s-6.6-15.4-15.3-15.4-15.3,6.5-15.3,15.4,6.6,15.4,15.3,15.4h0ZM555.7,73.9c-14.6,0-25.6-11.1-25.6-25.3s10.9-25.3,25.6-25.3c9.5,0,17.7,4.9,21.6,12.4l-9,5.2c-2.1-4.5-6.9-7.4-12.7-7.4-8.5,0-15,6.4-15,15.1s6.5,15.1,15,15.1c5.8,0,10.5-3,12.9-7.4l9,5.1c-4.1,7.6-12.3,12.5-21.8,12.5h0ZM594.7,37.8c0,8.8,26,3.5,26,21.3,0,9.6-8.4,14.8-18.9,14.8-9.7,0-16.6-4.3-19.7-11.3l9-5.2c1.5,4.3,5.4,6.9,10.7,6.9,4.6,0,8.2-1.5,8.2-5.4,0-8.6-26-3.7-26-21,0-9,7.8-14.7,17.7-14.7,7.9,0,14.5,3.7,17.9,10l-8.8,4.9c-1.7-3.8-5.1-5.5-9.1-5.5-3.7.1-7,1.8-7,5.2h0ZM639.3,37.8c0,8.8,26,3.5,26,21.3,0,9.6-8.4,14.8-18.9,14.8-9.7,0-16.6-4.3-19.7-11.3l9-5.2c1.5,4.3,5.4,6.9,10.7,6.9,4.6,0,8.2-1.5,8.2-5.4,0-8.6-26-3.7-26-21,0-9,7.8-14.7,17.7-14.7,7.9,0,14.5,3.7,17.9,10l-8.8,4.9c-1.7-3.8-5.1-5.5-9.1-5.5-3.7.1-7,1.8-7,5.2h0Z"/>
</svg>