<?xml version="1.0" encoding="UTF-8"?>
<svg id="Layer_1" data-name="Layer 1" xmlns="http://www.w3.org/2000/svg" viewBox="0 0 485.9 81">
  <defs>
    <style>
      .cls-1 {
        fill-rule: evenodd;
      }

      .cls-1, .cls-2 {
        fill: #72767d;
      }
    </style>
  </defs>
  <path class="cls-1" d="M129.9,0l-41.5,81h-38.9l17.3-33.6h-.8C51.8,66,30.4,78.2,0,81v-33.1s19.5-1.1,30.9-13.2H0V0h34.7v28.6h.8L49.7,0h26.3v28.4h.8L91.4,0h38.5Z"/>
  <path class="cls-2" d="M355.8,72.1h11.2V7.9h-11.2v64.2Z"/>
  <path class="cls-1" d="M294.2,71.4c2.4,1,4.9,1.5,7.4,1.5,4.2,0,7.9-1,11.1-3,3.3-2,5.8-4.8,7.6-8.4,1.8-3.6,2.7-7.6,2.7-12.2s-.9-8.6-2.8-12.2-4.4-6.3-7.7-8.3c-3.3-2-7.1-3-11.3-2.9-2.7,0-5.2.5-7.7,1.6-2.5,1-4.5,2.5-6.1,4.4-.1.1-.2.3-.4.4V7.9h-11.2v64.1h11.1v-6c.3.4.6.7.9,1,1.8,1.9,3.9,3.4,6.4,4.4ZM305.6,61c-1.8,1.1-3.9,1.7-6.3,1.7s-4.5-.6-6.4-1.7c-1.9-1.2-3.5-2.8-4.6-4.8s-1.7-4.3-1.7-6.9.5-4.9,1.6-6.9,2.7-3.6,4.6-4.8c1.9-1.1,4.1-1.7,6.4-1.7s4.4.5,6.3,1.6,3.3,2.7,4.3,4.7,1.5,4.3,1.5,7-.5,4.9-1.5,7c-.9,2.1-2.3,3.7-4.2,4.8Z"/>
  <path class="cls-2" d="M146.1,11.8h12.8l11.4,41.7,12.2-41.7h10.6l13.2,40.9,11-40.9h11.7l-17.3,60.3h-11l-13.4-40-12.3,40h-11.1l-17.8-60.3Z"/>
  <path class="cls-1" d="M247.8,73.1c-4.5,0-8.5-1-12-2.9-3.6-2-6.3-4.8-8.4-8.4-2-3.6-3-7.7-3-12.2s1-8.5,3.1-12.1c2.1-3.6,4.9-6.4,8.4-8.4,3.6-2,7.5-3,11.9-3,4.9,0,9.2,1.1,12.9,3.3,3.7,2.2,6.5,5.3,8.3,9.3,1.9,4,2.5,8.6,2,13.7h-35.1c.1,2.1.6,3.9,1.5,5.6,1,1.9,2.5,3.3,4.3,4.3,1.9,1,3.9,1.6,6.2,1.6,1.7,0,3.4-.3,4.9-.9,1.5-.6,2.8-1.4,3.8-2.4,1.1-1,1.8-2.2,2.3-3.4h11.7c-.7,3.1-2.1,5.9-4.3,8.4-2.1,2.4-4.8,4.3-8,5.7-3.1,1.2-6.6,1.9-10.5,1.8ZM237.5,41c-.7,1.1-1.1,2.4-1.4,3.7h23.3c-.2-1.7-.7-3.2-1.5-4.5-1-1.6-2.3-2.9-4-3.7-1.7-.9-3.6-1.4-5.7-1.4-2.3,0-4.3.5-6.2,1.6-1.9,1-3.4,2.4-4.5,4.3Z"/>
  <path class="cls-2" d="M331.3,26.9c0-3.7.8-6.9,2.5-9.7,1.7-2.9,4-5.1,7-6.7,3-1.6,6.6-2.4,10.6-2.5v10c-1.9,0-3.5.4-4.8,1.2-1.3.7-2.3,1.8-3,3.2-.7,1.3-1,2.8-1.1,4.5h8.7v9.5h-8.7v35.7h-11.2v-35.7h-7.2v-9.5s7.2,0,7.2,0Z"/>
  <path class="cls-1" d="M395.4,73c-4.6,0-8.6-1-12.2-3s-6.4-4.8-8.4-8.4-3-7.6-3-12.2,1-8.6,3-12.2,4.9-6.4,8.4-8.4c3.6-2,7.7-3,12.2-3s8.7,1,12.3,3c3.6,2,6.5,4.8,8.5,8.4s3,7.7,3.1,12.2c0,4.5-1.1,8.6-3.1,12.2s-4.8,6.3-8.4,8.4c-3.7,2-7.8,3-12.4,3ZM395.4,62.8c2.4,0,4.5-.5,6.4-1.6s3.3-2.7,4.3-4.7,1.5-4.3,1.5-6.9-.5-4.9-1.5-7c-1-2-2.4-3.6-4.3-4.7-1.9-1.1-4-1.7-6.4-1.7s-4.5.6-6.3,1.7c-1.8,1.1-3.2,2.6-4.3,4.7-1,2-1.5,4.3-1.5,7s.5,4.9,1.5,6.9,2.5,3.6,4.3,4.7c1.8,1,3.9,1.6,6.3,1.6Z"/>
  <path class="cls-2" d="M431.3,26.9h-12.5l13.5,45.1h10.9l8.9-28.8,9.6,28.8h10.7l13.5-45.1h-11.3l-7.6,28.1-8.5-28.1h-10.9l-8.4,28.7-7.9-28.7Z"/>
</svg>